<svg width="690" height="731" viewBox="0 0 690 731" fill="none" xmlns="http://www.w3.org/2000/svg">
<path fill-rule="evenodd" clip-rule="evenodd" d="M672.078 346.773C680.043 412.387 655.953 475.62 626.382 534.731C593.218 601.024 564.037 685.676 492.615 705.515C421.107 725.377 351.233 669.642 289.617 628.274C243.515 597.322 229.14 538.842 188.31 501.208C135.512 452.544 34.9866 447.782 18.0795 377.996C1.72108 310.475 73.6569 255.059 115.18 199.359C153.976 147.318 193.176 96.4131 250.582 66.1148C314.153 32.5622 387.98 -4.36051 455.749 19.6101C522.871 43.3519 544.536 124.592 583.805 183.98C618.706 236.762 664.453 283.957 672.078 346.773Z" fill="#F37021"/>
</svg>
